<svg xmlns="http://www.w3.org/2000/svg" version="1.1" xmlns:xlink="http://www.w3.org/1999/xlink" xmlns:svgjs="http://svgjs.dev/svgjs" width="1500" height="310" viewBox="0 0 1500 310"><g transform="matrix(1,0,0,1,-0.9089686826991965,-0.9067098162072966)"><svg viewBox="0 0 396 82" data-background-color="#ffffff" preserveAspectRatio="xMidYMid meet" height="310" width="1500" xmlns="http://www.w3.org/2000/svg" xmlns:xlink="http://www.w3.org/1999/xlink"><g id="tight-bounds" transform="matrix(1,0,0,1,0.23996773223259993,0.2398393707387072)"><svg viewBox="0 0 395.5199999999999 81.52032125852261" height="81.52032125852261" width="395.5199999999999"><g><svg viewBox="0 0 490.2973233444553 101.05480206116945" height="81.52032125852261" width="395.5199999999999"><g transform="matrix(1,0,0,1,94.77732334445531,0)"><svg viewBox="0 0 395.52 101.05480206116945" height="101.05480206116945" width="395.52"><g id="textblocktransform"><svg viewBox="0 0 395.52 101.05480206116945" height="101.05480206116945" width="395.52" id="textblock"><g><svg viewBox="0 0 395.52 101.05480206116945" height="101.05480206116945" width="395.52"><path d="M394.594 21.674C392.735 11.185 387.435 8.269 387.435 8.269 371.165-2.535 350.86-0.207 332.619 1.346 300.414 1.409 268.339 3.716 236.208 4.954 168.767 5.143 100.749 2.038 33.643 9.695 27.339 12.045-6.54 10.157 1.121 23.017 3.129 28.367 10.456 34.304 10.232 39.213 11.236 40.073 12.631 38.101 13.226 39.339 15.309 42.674 18.711 41.101 21.501 43.073 17.614 48.339 20.403 52.723 23.062 57.317 18.377 58.513 12.371 57.947 9.675 61.912 9.396 64.786 7.89 64.241 6.235 64.115 5.026 64.031 2.59 64.345 2.999 65.248 4.394 68.331-1.594 70.115 2.162 73.136-0.422 76.408 3.948 79.24 3.353 82.786 3.278 83.499 3.687 84.108 4.338 84.275 7.22 85.177 3.018 86.94 3.464 88.849 33.029 101.898 65.104 92.877 95.394 98.877 103.259 94.681 97.346 100.366 100.489 99.485 102.943 98.457 104.728 102.716 107.499 100.303 107.927 99.611 107.276 97.975 108.8 98.289 109.6 98.457 110.307 98.415 110.418 97.45 110.586 96.003 109.117 96.905 108.726 96.149 112.947 92.331 111.906 101.415 115.866 101.038 115.68 99.926 114.528 98.331 116.889 98.541 119.232 96.947 119.306 95.625 121.389 99.212 121.463 99.989 121.835 100.534 122.43 100.912 128.938 97.01 135.409 102.296 142.233 100.534 146.417 98.604 150.433 101.583 154.672 100.849 156.16 100.261 157.666 99.212 159.098 100.975 176.632 101.352 195.319 99.779 211.943 101.038 256.364 98.688 303.836 102.003 350.674 98.898 361.719 97.702 373.192 96.003 383.958 94.639 383.958 94.639 392.679 90.905 392.679 74.122S394.538 59.436 394.817 46.073C395.096 32.709 396.398 32.164 394.538 21.674Z" opacity="1" fill="#556970" data-fill-palette-color="tertiary"></path><g transform="matrix(1,0,0,1,55.76832,26.230666666666668)"><svg width="283.98335999999995" viewBox="1.5 -38.7 290.42 49.7" height="48.59346872783611" data-palette-color="#ffffff"><path d="M14.65 0.55L14.65 0.55Q9.1 0.55 5.3-4.1 1.5-8.75 1.5-15.5L1.5-15.5Q1.5-23.75 6.08-29.4 10.65-35.05 17.3-35.05L17.3-35.05Q19.9-35.05 22.13-34.52 24.35-34 25.3-33.45L25.3-33.45 26.2-32.9 22.8-25.95Q21.65-26.95 19.55-27.83 17.45-28.7 15.75-28.7L15.75-28.7Q12.3-28.7 10.23-25.85 8.15-23 8.15-17.73 8.15-12.45 10.3-9.08 12.45-5.7 16.15-5.7L16.15-5.7Q18.55-5.7 20.5-7.2 22.45-8.7 23.25-11.2L23.25-11.2 27.4-8.8Q25.75-4.4 22.35-1.93 18.95 0.55 14.65 0.55ZM28.95-10.45Q28.95-16.85 32.4-21.3 35.85-25.75 40.47-25.75 45.1-25.75 47.67-22.75 50.25-19.75 50.25-14.8L50.25-14.8Q50.25-8.2 46.92-3.83 43.6 0.55 38.55 0.55L38.55 0.55Q34.4 0.55 31.67-2.58 28.95-5.7 28.95-10.45L28.95-10.45ZM44.65-12.2L44.65-12.2Q44.65-19.45 39.7-19.45L39.7-19.45Q34.55-19.45 34.55-12.65L34.55-12.65Q34.55-9.1 36-7.1 37.45-5.1 39.82-5.1 42.2-5.1 43.42-6.93 44.65-8.75 44.65-12.2ZM54.55-37.45L61.4-38.7 60.75-13 61.3-1.25 54.55 0 55.15-12.15 54.55-37.45ZM67.19-37.45L74.04-38.7 73.39-13 73.94-1.25 67.19 0 67.79-12.15 67.19-37.45ZM84.84 0Q81.89 0 80.02-1.88 78.14-3.75 78.14-6.93 78.14-10.1 81.04-12.43 83.94-14.75 88.09-14.75L88.09-14.75 91.49-14.75 91.49-15.6Q91.49-18.05 90.49-18.95 89.49-19.85 86.74-19.85L86.74-19.85Q85.59-19.85 84.02-19.38 82.44-18.9 80.49-17.9L80.49-17.9 79.04-21.85Q81.19-23.35 84.27-24.55 87.34-25.75 89.34-25.75L89.34-25.75Q97.19-25.75 97.19-18.15L97.19-18.15 97.19-8.35Q97.19-5.55 98.94-2.1L98.94-2.1 93.64 0.15Q92.39-2.25 91.79-4.15L91.79-4.15Q89.04 0 84.84 0L84.84 0ZM86.94-5.1L86.94-5.1Q88.94-5.1 91.49-7.15L91.49-7.15 91.49-10.5Q88.84-11.1 87.19-11.1L87.19-11.1Q84.04-11.1 84.04-8.3L84.04-8.3Q84.04-6.85 84.84-5.98 85.64-5.1 86.94-5.1ZM116.54-25.25L116.54-25.25Q119.89-25.25 121.99-22.35 124.09-19.45 124.09-14.9L124.09-14.9Q124.09-8.35 120.66-4.17 117.24 0 111.79 0L111.79 0Q109.29 0 103.39-0.8L103.39-0.8 103.89-12.15 103.29-37.45 110.14-38.7 109.49-25.8 109.49-20.4Q110.04-21.2 110.84-22.1 111.64-23 113.34-24.13 115.04-25.25 116.54-25.25ZM114.59-18.75L114.59-18.75Q112.29-18.75 109.49-17.35L109.49-17.35 109.49-13 109.79-5.65Q111.89-5.4 113.74-5.4L113.74-5.4Q118.54-5.4 118.54-12.08 118.54-18.75 114.59-18.75ZM128.24-24.2L134.94-25.45 134.34-13 134.89-1.25 128.19 0 128.79-12.15 128.24-24.2ZM127.89-32.77Q127.89-34.45 129.19-35.77 130.49-37.1 132.19-37.1 133.89-37.1 134.79-36.18 135.69-35.25 135.69-33.4 135.69-31.55 134.41-30.23 133.14-28.9 131.46-28.9 129.79-28.9 128.84-30 127.89-31.1 127.89-32.77ZM155.33-38.25L153.78-32.55Q151.93-33 150.43-33 148.93-33 148.26-32.1 147.58-31.2 147.58-28.95L147.58-28.95 147.53-24.2 152.93-24.2 152.38-20.1 147.53-20.1 147.48-13 148.03-1.25 141.28 0 141.88-12.15 141.68-20.1 138.38-20.1 138.93-24.2 141.58-24.2 141.53-28Q141.53-32.45 144.28-35.58 147.03-38.7 150.98-38.7L150.98-38.7Q153.08-38.7 155.33-38.25L155.33-38.25ZM162.73 11L156.28 9.65 161.43-1.9 157.73-12 152.68-24.15 159.33-25.4 162.53-14.75 164.18-9.7 164.83-9.7 166.03-13.35 169.63-25.45 175.78-24.7 166.93-1.45 162.73 11ZM194.08-4.65L194.08-4.65Q196.68-4.65 196.68-6.95L196.68-6.95Q196.68-7.75 195.55-8.45 194.43-9.15 192.8-9.85 191.18-10.55 189.55-11.43 187.93-12.3 186.8-13.85 185.68-15.4 185.68-17.4L185.68-17.4Q185.68-20.75 188.63-23.25 191.58-25.75 195.43-25.75L195.43-25.75Q197.23-25.75 198.95-25.33 200.68-24.9 202.28-24L202.28-24 198.93-17.9Q198.58-18.2 198.03-18.65 197.48-19.1 195.95-19.83 194.43-20.55 193.25-20.55 192.08-20.55 191.45-20.03 190.83-19.5 190.83-18.57 190.83-17.65 192.55-16.73 194.28-15.8 196.33-15.03 198.38-14.25 200.1-12.48 201.83-10.7 201.83-8.25L201.83-8.25Q201.83-4.75 198.95-2.1 196.08 0.55 192.33 0.55L192.33 0.55Q189.93 0.55 187.85-0.5 185.78-1.55 184.88-2.6L184.88-2.6 183.98-3.65 187.93-8.25Q188.23-7.85 188.78-7.25 189.33-6.65 190.95-5.65 192.58-4.65 194.08-4.65ZM219.57-25.25L219.57-25.25Q222.77-25.25 224.95-22.45 227.12-19.65 227.12-14.9L227.12-14.9Q227.12-8.25 223.7-4.13 220.27 0 215.17 0L215.17 0Q214.12 0 212.82-0.15L212.82-0.15 213.07 9.4 206.22 10.65 206.87-12.15 206.92-12.15Q206.72-18.85 205.82-24.15L205.82-24.15 211.87-25.45Q212.17-22.8 212.37-20.2L212.37-20.2Q212.47-20.45 213.4-21.58 214.32-22.7 216.12-23.98 217.92-25.25 219.57-25.25ZM217.62-18.75L217.62-18.75Q214.97-18.75 212.47-17.3L212.47-17.3 212.47-13 212.67-5.85Q215.37-5.4 216.77-5.4L216.77-5.4Q221.57-5.4 221.57-12.08 221.57-18.75 217.62-18.75ZM236.27 0Q233.32 0 231.45-1.88 229.57-3.75 229.57-6.93 229.57-10.1 232.47-12.43 235.37-14.75 239.52-14.75L239.52-14.75 242.92-14.75 242.92-15.6Q242.92-18.05 241.92-18.95 240.92-19.85 238.17-19.85L238.17-19.85Q237.02-19.85 235.45-19.38 233.87-18.9 231.92-17.9L231.92-17.9 230.47-21.85Q232.62-23.35 235.7-24.55 238.77-25.75 240.77-25.75L240.77-25.75Q248.62-25.75 248.62-18.15L248.62-18.15 248.62-8.35Q248.62-5.55 250.37-2.1L250.37-2.1 245.07 0.15Q243.82-2.25 243.22-4.15L243.22-4.15Q240.47 0 236.27 0L236.27 0ZM238.37-5.1L238.37-5.1Q240.37-5.1 242.92-7.15L242.92-7.15 242.92-10.5Q240.27-11.1 238.62-11.1L238.62-11.1Q235.47-11.1 235.47-8.3L235.47-8.3Q235.47-6.85 236.27-5.98 237.07-5.1 238.37-5.1ZM263.32-19.25Q261.12-19.25 259.92-17.68 258.72-16.1 258.72-12.85 258.72-9.6 259.94-7.63 261.17-5.65 263.52-5.65L263.52-5.65Q264.72-5.65 265.87-6.4 267.02-7.15 267.62-7.9L267.62-7.9 268.17-8.7 270.67-6.1Q270.52-5.85 270.29-5.4 270.07-4.95 269.19-3.8 268.32-2.65 267.34-1.78 266.37-0.9 264.82-0.18 263.27 0.55 261.57 0.55L261.57 0.55Q257.82 0.55 255.47-2.5 253.12-5.55 253.12-10.45L253.12-10.45Q253.12-16.55 256.67-21.15 260.22-25.75 264.97-25.75L264.97-25.75Q266.42-25.75 267.87-25.33 269.32-24.9 270.82-24L270.82-24 267.32-17.85Q265.52-19.25 263.32-19.25ZM282.97-5.1L282.97-5.1Q284.42-5.1 286.02-5.85 287.62-6.6 288.52-7.35L288.52-7.35 289.42-8.1 291.72-5.3Q291.22-4.45 290.17-3.35 289.12-2.25 288.04-1.48 286.97-0.7 285.19-0.08 283.42 0.55 281.52 0.55L281.52 0.55Q277.47 0.55 274.92-2.53 272.37-5.6 272.37-10.45L272.37-10.45Q272.37-16.55 275.92-21.15 279.47-25.75 284.22-25.75L284.22-25.75Q287.87-25.75 289.89-23.7 291.92-21.65 291.92-17.95L291.92-17.95Q291.92-15.75 291.17-12.95L291.17-12.95 290.17-11.9 277.67-10.75Q278.52-5.1 282.97-5.1ZM282.97-20.6L282.97-20.6Q280.77-20.6 279.27-18.82 277.77-17.05 277.52-14.3L277.52-14.3 286.02-15.35Q286.17-16.5 286.17-17.25L286.17-17.25Q286.17-20.6 282.97-20.6Z" opacity="1" transform="matrix(1,0,0,1,0,0)" fill="#ffffff" class="wordmark-text-0" data-fill-palette-color="quaternary" id="text-0"></path></svg></g></svg></g></svg></g></svg></g><g transform="matrix(1,0,0,1,0,3.9748222144059895)"><svg viewBox="0 0 83.30557162106267 93.10515763235747" height="93.10515763235747" width="83.30557162106267"><g><svg xmlns="http://www.w3.org/2000/svg" xmlns:xlink="http://www.w3.org/1999/xlink" xml:space="preserve" style="shape-rendering:geometricPrecision;text-rendering:geometricPrecision;image-rendering:optimizeQuality;" viewBox="1123 853 4582 5121" x="0" y="0" fill-rule="evenodd" clip-rule="evenodd" height="93.10515763235747" width="83.30557162106267" class="icon-icon-0" data-fill-palette-color="accent" id="icon-0"><g fill="#94d2bd" data-fill-palette-color="accent"><g fill="#94d2bd" data-fill-palette-color="accent"><path class="" d="M1721 5082V4745H2207V5082C2126 5067 2043 5061 1964 5061S1802 5068 1721 5082" fill="#94d2bd" fill-rule="nonzero" data-fill-palette-color="accent"></path><path class="" d="M2116 853C2275 853 2419 917 2523 1022 2627 1126 2692 1270 2692 1429S2628 1732 2523 1836C2419 1940 2275 2005 2116 2005S1813 1941 1709 1836C1605 1732 1540 1588 1540 1429S1604 1126 1709 1022C1813 918 1957 853 2116 853" fill="#94d2bd" fill-rule="nonzero" data-fill-palette-color="accent"></path><path class="" d="M1359 4444H2703C2768 4444 2821 4497 2821 4562S2768 4680 2703 4680H1241C1176 4680 1123 4627 1123 4562V2321C1123 2256 1176 2203 1241 2203S1359 2256 1359 2321z" fill="#94d2bd" data-fill-palette-color="accent"></path><path class="" d="M1647 2231C1735 2143 1858 2088 1993 2088 2206 2088 2378 2275 2543 2454 2596 2512 2648 2568 2699 2615H3461C3528 2615 3589 2642 3633 2686S3704 2791 3704 2858 3677 2986 3633 3030 3528 3101 3461 3101H2599C2573 3100 2547 3095 2522 3086 2508 3081 2494 3074 2481 3066V3725H3276C3352 3725 3421 3756 3471 3806S3552 3925 3552 4001V5201H3714C3790 5201 3859 5232 3909 5282S3990 5401 3990 5477 3959 5622 3909 5672 3790 5753 3714 5753H3276C3200 5753 3131 5722 3081 5672S3000 5553 3000 5477V4352H2460C2176 4352 2076 4353 1992 4353 1857 4353 1735 4298 1646 4210 1558 4122 1503 3999 1503 3864V2579C1503 2444 1558 2322 1646 2233z" fill="#94d2bd" fill-rule="nonzero" data-fill-palette-color="accent"></path><path class="" d="M5704 3366V5895H5626 5705C5705 5938 5670 5974 5626 5974H4445C4401 5974 4366 5939 4366 5895V3767H3604C3537 3767 3476 3740 3432 3696S3361 3591 3361 3524 3388 3396 3432 3352 3537 3281 3604 3281H4432C4436 3280 4440 3280 4444 3280H5625C5669 3280 5704 3315 5704 3359zM4762 5317C4718 5317 4683 5352 4683 5396S4718 5475 4762 5475H5308C5352 5475 5387 5440 5387 5396S5352 5317 5308 5317zM4762 4804C4718 4804 4683 4839 4683 4883S4718 4962 4762 4962H5308C5352 4962 5387 4927 5387 4883S5352 4804 5308 4804zM4762 4291C4718 4291 4683 4326 4683 4370S4718 4449 4762 4449H5308C5352 4449 5387 4414 5387 4370S5352 4291 5308 4291zM4762 3778C4718 3778 4683 3813 4683 3857S4718 3936 4762 3936H5308C5352 3936 5387 3901 5387 3857S5352 3778 5308 3778z" fill="#94d2bd" fill-rule="nonzero" data-fill-palette-color="accent"></path><path class="" d="M5207 3051L5197 3089C5197 3091 5196 3092 5196 3094L5187 3127 5181 3125C5159 3157 5122 3176 5082 3176H3946C3881 3176 3828 3123 3828 3058S3881 2940 3946 2940H4993L5233 2043C5250 1980 5315 1943 5378 1959 5441 1976 5478 2041 5462 2104L5208 3051z" fill="#94d2bd" data-fill-palette-color="accent"></path><path class="" d="M1224 5537C1224 5385 1346 5278 1472 5216 1619 5144 1800 5114 1963 5114S2306 5143 2454 5216C2581 5278 2702 5385 2702 5537V5576H2466V5537C2466 5491 2385 5444 2350 5427 2235 5371 2089 5350 1963 5350 1836 5350 1690 5371 1576 5427 1541 5444 1460 5490 1460 5537V5576H1224z" fill="#94d2bd" data-fill-palette-color="accent"></path><circle class="" cx="2582" cy="5602" r="1.5e+2" fill="#94d2bd" data-fill-palette-color="accent"></circle><polygon class="" points="1885,5549 1885,5233 2042,5233 2042,5549 " fill="#94d2bd" fill-rule="nonzero" data-fill-palette-color="accent"></polygon><circle class="" cx="1963" cy="5549" r="1.4e+2" fill="#94d2bd" data-fill-palette-color="accent"></circle><circle class="" cx="1355" cy="5602" r="1.5e+2" fill="#94d2bd" data-fill-palette-color="accent"></circle></g></g></svg></g></svg></g></svg></g><defs></defs></svg><rect width="395.5199999999999" height="81.52032125852261" fill="none" stroke="none" visibility="hidden"></rect></g></svg></g></svg>